# xmcd CD Database Entry
#
# Track frame offsets:
# 150
# 23875
# 45625
# 62435
# 88525
# 113200
# 136150
# 169887
# 199935
#
# Disc length: 2981 seconds
#
# Revision: 1
# Processed by: cddbd v1.4b41PL1 Copyright (c) Steve Scherf et al.
# Submitted via: tcd 2.0b
#
DISCID=730ba309
DTITLE=Just Friends - Nevertheless
DYEAR=1900
DGENRE=
TTITLE0=Poobly
TTITLE1=Some People
TTITLE2=Sorrow is not forever
TTITLE3=In your eyes
TTITLE4=Liliana
TTITLE5=Bakers Daughter
TTITLE6=Mute
TTITLE7=Funky Waltz
TTITLE8=Whims
EXTD=
EXTT0=
EXTT1=
EXTT2=
EXTT3=
EXTT4=
EXTT5=
EXTT6=
EXTT7=
EXTT8=
PLAYORDER=
